<svg width="143" height="46" viewBox="0 0 143 46" fill="none" xmlns="http://www.w3.org/2000/svg">
  <path d="M89.7363 14.1983C88.3633 14.8278 87.1591 15.7715 86.2218 16.9524C85.2725 18.1326 84.6157 19.519 84.3048 20.9991C83.9915 22.4821 84.0291 24.0173 84.4146 25.4833C84.7888 26.9551 85.5072 28.3179 86.5114 29.4604C87.5075 30.5948 88.7599 31.4774 90.1656 32.0355C91.5597 32.6005 93.0702 32.8222 94.5687 32.6818C96.072 32.5375 97.5194 32.04 98.792 31.2302C100.073 30.4243 101.146 29.3313 101.927 28.0386V27.9888C101.931 27.9658 101.931 27.9423 101.927 27.9192C101.932 27.8963 101.932 27.8726 101.927 27.8496L98.2129 25.6324C98.191 25.6225 98.1672 25.6174 98.1431 25.6174C98.119 25.6174 98.0951 25.6225 98.0732 25.6324C98.0287 25.6461 97.9901 25.674 97.9633 25.712C97.631 26.4094 97.1467 27.0242 96.5456 27.5116C95.9313 28.061 95.1682 28.4181 94.3514 28.5384C93.5346 28.6586 92.7004 28.5366 91.9528 28.1877C91.3048 27.8846 90.7281 27.4491 90.2602 26.9095C89.7923 26.3699 89.4437 25.7383 89.2371 25.0557H103.075C103.075 25.0557 103.235 24.9662 103.255 24.8967C103.319 24.5682 103.362 24.2361 103.385 23.9024C103.536 22.2163 103.244 20.52 102.536 18.9807C102.025 17.8255 101.287 16.7834 100.367 15.9155C99.446 15.0475 98.3608 14.3711 97.1745 13.9257C95.9882 13.4804 94.7247 13.2752 93.4578 13.322C92.1909 13.3688 90.9461 13.6667 89.7962 14.1983H89.7363ZM89.277 20.8201C89.6216 19.6824 90.3895 18.7186 91.4236 18.1257C92.4472 17.5364 93.6591 17.362 94.8083 17.6385C95.5764 17.8565 96.278 18.2615 96.8497 18.817C97.4214 19.3724 97.8453 20.0608 98.0832 20.8201H89.277Z" fill="white"/>
  <path d="M61.82 14.1692H57.387H57.3271C57.323 14.1922 57.323 14.2158 57.3271 14.2388V15.1337C57.0481 14.9891 56.7811 14.8228 56.5283 14.6365C55.305 14.0154 53.9573 13.6756 52.5845 13.6422C51.1961 13.6037 49.8168 13.8778 48.5496 14.4442C47.2823 15.0106 46.1599 15.8547 45.266 16.9134C44.3674 17.9457 43.7123 19.1654 43.349 20.4828C42.9791 21.7372 42.8804 23.0554 43.0595 24.3506C43.3289 26.2955 44.2104 28.1054 45.5773 29.5202C46.9443 30.935 48.7263 31.882 50.6675 32.2252C52.5437 32.653 54.5111 32.4138 56.2288 31.5491L57.2771 30.9227C57.387 30.9227 57.357 30.9227 57.357 31.0022V31.8871C57.3524 31.9068 57.3524 31.9272 57.357 31.9468C57.3502 31.9661 57.3502 31.9872 57.357 32.0065H57.4169C57.4399 32.0116 57.4638 32.0116 57.4868 32.0065H61.7701C61.7701 32.0065 61.7701 32.0065 61.83 32.0065C61.8525 31.9974 61.873 31.984 61.8901 31.9669C61.9073 31.9498 61.9208 31.9295 61.9298 31.907C61.9342 31.8874 61.9342 31.867 61.9298 31.8474V14.3283C61.9331 14.3052 61.9331 14.2818 61.9298 14.2587C61.9105 14.2519 61.8893 14.2519 61.8699 14.2587H61.81M55.6996 27.1842C52.8841 29.8489 48.8304 28.268 47.8819 24.7184C47.0832 21.7356 48.8804 18.1463 52.1053 17.8381C56.9177 17.4105 58.9944 24.0622 55.6996 27.1842Z" fill="white"/>
  <path d="M138.629 14.1692H134.196H134.136C134.132 14.1922 134.132 14.2157 134.136 14.2388V14.9845C134.136 15.074 134.136 15.1137 134.006 15.074C133.876 15.0342 133.447 14.6862 133.337 14.6365C132.114 14.0154 130.766 13.6756 129.393 13.6422C127.324 13.5852 125.295 14.2201 123.63 15.4455C121.965 16.6709 120.76 18.4163 120.208 20.4033C119.835 21.6541 119.731 22.9692 119.903 24.2627C120.075 25.5562 120.519 26.799 121.206 27.91C121.902 29.0165 122.82 29.9677 123.902 30.7039C124.985 31.4323 126.21 31.9267 127.496 32.1555C129.38 32.5642 131.347 32.3039 133.058 31.4198L134.056 30.8232H134.136C134.196 30.8232 134.136 30.8232 134.136 30.8928V31.7777C134.131 31.8007 134.131 31.8244 134.136 31.8473C134.132 31.8636 134.132 31.8807 134.136 31.897H134.196H138.619C138.635 31.9012 138.652 31.9012 138.669 31.897C138.675 31.881 138.675 31.8633 138.669 31.8473C138.673 31.8243 138.673 31.8007 138.669 31.7777V14.3282C138.672 14.3052 138.672 14.2817 138.669 14.2586C138.652 14.2544 138.635 14.2544 138.619 14.2586L138.629 14.1692ZM132.519 27.0947C129.703 29.7594 125.649 28.1785 124.701 24.6289C123.902 21.6461 125.699 18.0568 128.934 17.7485C133.737 17.321 135.833 23.9727 132.519 27.0947Z" fill="white"/>
  <path d="M81.3593 14.2079H76.8963H76.8364H76.7765C76.7722 14.2242 76.7722 14.2413 76.7765 14.2576C76.7765 14.2576 76.7765 14.3073 76.7765 14.3272V21.0982H69.7875V14.3868C69.802 14.3484 69.802 14.306 69.7875 14.2675C69.7711 14.2493 69.7511 14.2345 69.7288 14.2243C69.7064 14.214 69.6822 14.2084 69.6577 14.2079H65.1847C65.1616 14.2086 65.1389 14.2143 65.1182 14.2246C65.0975 14.2349 65.0793 14.2495 65.0649 14.2675C65.0457 14.2808 65.0301 14.2987 65.0196 14.3196C65.0092 14.3404 65.0041 14.3635 65.005 14.3868V31.8065C65.0041 31.8298 65.0092 31.8529 65.0196 31.8737C65.0301 31.8946 65.0457 31.9125 65.0649 31.9258C65.0793 31.9438 65.0975 31.9584 65.1182 31.9687C65.1389 31.979 65.1616 31.9847 65.1847 31.9854H69.5878C69.6124 31.9849 69.6366 31.9793 69.6589 31.969C69.6812 31.9588 69.7012 31.944 69.7176 31.9258C69.7321 31.8873 69.7321 31.8449 69.7176 31.8065V25.8906H76.7066V31.8562C76.6927 31.8913 76.6927 31.9304 76.7066 31.9656C76.7219 31.9817 76.7405 31.9945 76.7612 32.0031C76.7818 32.0116 76.804 32.0158 76.8264 32.0153H81.2894C81.3314 32.0297 81.3771 32.0297 81.4192 32.0153C81.4481 31.9818 81.4655 31.94 81.4691 31.896V14.3868C81.469 14.342 81.451 14.2991 81.4192 14.2675C81.4037 14.2482 81.3839 14.2328 81.3613 14.2224C81.3388 14.2121 81.3142 14.2071 81.2894 14.2079" fill="white"/>
  <path d="M20.5648 14.1585H4.3403L4.28039 14.2082L4.23047 14.2579V14.3275V31.7571C4.23047 31.7571 4.23047 31.7571 4.23047 31.8267H4.29037H4.36026H8.86318C8.90869 31.8206 8.95091 31.7998 8.98338 31.7675C9.01584 31.7351 9.03676 31.6931 9.0429 31.6478V18.5333C9.06081 18.4802 9.09169 18.4324 9.13276 18.3941H15.8222C15.8733 18.4162 15.9155 18.4547 15.9421 18.5035V31.777C15.9365 31.7999 15.9365 31.8237 15.9421 31.8466C15.9392 31.8664 15.9392 31.8865 15.9421 31.9063H16.002H20.5848H20.6447C20.6475 31.8865 20.6475 31.8664 20.6447 31.8466C20.6506 31.8238 20.6506 31.7998 20.6447 31.777V14.3275C20.6441 14.3031 20.6385 14.279 20.6282 14.2567C20.6179 14.2345 20.6031 14.2146 20.5848 14.1983C20.5494 14.1659 20.503 14.1482 20.455 14.1486L20.5648 14.1585Z" fill="white"/>
  <path d="M40.2937 14.1486H25.4571C25.4094 14.15 25.3636 14.1675 25.3273 14.1983C25.2948 14.2335 25.2769 14.2797 25.2773 14.3275V26.0202C25.2344 26.2478 25.1605 26.4686 25.0577 26.6764C24.7282 27.2928 23.7797 27.3823 23.1207 27.4221C23.0765 27.4256 23.0346 27.443 23.0009 27.4718C22.9854 27.5101 22.9854 27.5529 23.0009 27.5911V31.6279C22.9909 31.6534 22.9909 31.6818 23.0009 31.7074C23.7038 31.9275 24.4439 32.0053 25.1775 31.9361C26.4378 31.8807 27.6337 31.3659 28.5376 30.4896C29.4415 29.6132 29.9904 28.4366 30.0798 27.1835C30.1896 24.4592 30.0798 21.7448 30.0798 18.8614C30.0798 18.5134 30.1896 18.3643 30.5391 18.3345H35.4613C35.5292 18.348 35.5928 18.3776 35.6467 18.4209C35.7006 18.4642 35.7432 18.5198 35.7708 18.583V31.6478C35.7653 31.6706 35.7653 31.6945 35.7708 31.7174V31.777H35.8307H40.2937C40.3177 31.7785 40.3417 31.7748 40.3642 31.7663C40.3867 31.7579 40.4071 31.7447 40.424 31.7278C40.441 31.7109 40.4542 31.6906 40.4627 31.6682C40.4713 31.6458 40.4749 31.6219 40.4734 31.598V14.3275C40.4887 14.2858 40.4887 14.24 40.4734 14.1983C40.4381 14.1659 40.3917 14.1482 40.3436 14.1486" fill="white"/>
  <path d="M118.501 14.2381H104.204H104.144C104.113 14.2609 104.089 14.2919 104.074 14.3276C104.074 14.3276 104.074 14.3773 104.074 14.3972V18.245C104.059 18.2833 104.059 18.3261 104.074 18.3643C104.108 18.3931 104.15 18.4105 104.194 18.414H108.777C108.822 18.4196 108.865 18.4407 108.897 18.4737C108.91 18.5123 108.91 18.5544 108.897 18.593V31.8467C108.887 31.8651 108.882 31.8855 108.882 31.9063C108.882 31.9271 108.887 31.9475 108.897 31.966C108.911 31.984 108.929 31.9986 108.95 32.0089C108.971 32.0192 108.993 32.0249 109.016 32.0256H113.399C113.423 32.0249 113.445 32.0192 113.466 32.0089C113.487 31.9986 113.505 31.984 113.519 31.966C113.537 31.9522 113.552 31.9339 113.56 31.913C113.569 31.892 113.572 31.8692 113.569 31.8467V18.5035C113.57 18.479 113.575 18.4549 113.586 18.4327C113.596 18.4105 113.611 18.3906 113.629 18.3743C113.661 18.3434 113.704 18.3257 113.749 18.3246H118.322C118.361 18.3362 118.402 18.3362 118.442 18.3246C118.457 18.2863 118.457 18.2435 118.442 18.2052V14.4171C118.442 14.4171 118.442 14.3674 118.442 14.3475C118.444 14.3277 118.444 14.3076 118.442 14.2878H118.382L118.501 14.2381Z" fill="white"/>
</svg>
