<svg width="184" height="59" viewBox="0 0 184 59" fill="none" xmlns="http://www.w3.org/2000/svg">
  <path d="M115.464 18.2115C113.698 19.0189 112.148 20.2293 110.942 21.7439C109.72 23.2577 108.875 25.0358 108.475 26.9342C108.072 28.8363 108.121 30.8054 108.617 32.6857C109.098 34.5735 110.023 36.3214 111.315 37.7867C112.596 39.2418 114.208 40.3738 116.017 41.0897C117.81 41.8143 119.754 42.0987 121.682 41.9186C123.616 41.7334 125.479 41.0953 127.116 40.0567C128.764 39.023 130.146 37.6212 131.15 35.9631V35.8993C131.156 35.8698 131.156 35.8396 131.15 35.8101C131.156 35.7806 131.156 35.7502 131.15 35.7208L126.371 32.877C126.343 32.8643 126.312 32.8577 126.281 32.8577C126.25 32.8577 126.22 32.8643 126.191 32.877C126.134 32.8945 126.084 32.9304 126.05 32.979C125.622 33.8735 124.999 34.6621 124.226 35.2872C123.435 35.9919 122.453 36.45 121.402 36.6042C120.352 36.7584 119.278 36.602 118.316 36.1544C117.482 35.7657 116.74 35.2071 116.138 34.515C115.536 33.8229 115.088 33.0128 114.822 32.1373H132.628C132.628 32.1373 132.833 32.0225 132.859 31.9333C132.941 31.512 132.997 31.0861 133.026 30.658C133.22 28.4954 132.844 26.3198 131.934 24.3455C131.276 22.8638 130.327 21.5272 129.142 20.4139C127.958 19.3007 126.561 18.4331 125.035 17.8619C123.509 17.2907 121.883 17.0274 120.253 17.0875C118.623 17.1475 117.021 17.5296 115.541 18.2115H115.464ZM114.873 26.7047C115.317 25.2454 116.305 24.0093 117.635 23.2487C118.952 22.493 120.512 22.2692 121.99 22.6239C122.979 22.9035 123.881 23.423 124.617 24.1354C125.353 24.8478 125.898 25.7308 126.204 26.7047H114.873Z" fill="#212123"/>
  <path d="M79.5441 18.1736H73.8401H73.763C73.7577 18.2032 73.7577 18.2334 73.763 18.2629V19.4106C73.4041 19.2252 73.0604 19.012 72.7352 18.773C71.1612 17.9764 69.427 17.5406 67.6607 17.4977C65.8741 17.4483 64.0994 17.7999 62.4688 18.5264C60.8383 19.2528 59.3941 20.3354 58.2439 21.6934C57.0876 23.0174 56.2447 24.5818 55.7773 26.2716C55.3012 27.8804 55.1742 29.5712 55.4047 31.2323C55.7514 33.7269 56.8856 36.0483 58.6444 37.863C60.4033 39.6776 62.6963 40.8923 65.1941 41.3324C67.6082 41.8811 70.1396 41.5743 72.3498 40.4652L73.6987 39.6618C73.8401 39.6618 73.8015 39.6618 73.8015 39.7638V40.8988C73.7955 40.924 73.7955 40.9502 73.8015 40.9753C73.7927 41.0001 73.7927 41.0271 73.8015 41.0518H73.8786C73.9082 41.0584 73.9389 41.0584 73.9685 41.0518H79.4799C79.4799 41.0518 79.4799 41.0518 79.5569 41.0518C79.5859 41.0403 79.6123 41.023 79.6343 41.0011C79.6564 40.9792 79.6738 40.9531 79.6854 40.9243C79.691 40.8991 79.691 40.873 79.6854 40.8478V18.3777C79.6896 18.3481 79.6896 18.318 79.6854 18.2884C79.6605 18.2797 79.6333 18.2797 79.6083 18.2884H79.5313M71.6689 34.8668C68.0461 38.2845 62.8302 36.2569 61.6098 31.7042C60.582 27.8784 62.8945 23.2747 67.044 22.8794C73.2363 22.331 75.9084 30.8625 71.6689 34.8668Z" fill="#212123"/>
  <path d="M178.376 18.1736H172.672H172.595C172.59 18.2031 172.59 18.2333 172.595 18.2628V19.2193C172.595 19.3341 172.595 19.3851 172.428 19.3341C172.261 19.2831 171.709 18.8367 171.568 18.773C169.994 17.9763 168.259 17.5405 166.493 17.4977C163.83 17.4246 161.219 18.2389 159.077 19.8106C156.935 21.3824 155.385 23.6211 154.674 26.1695C154.194 27.7738 154.06 29.4605 154.282 31.1196C154.503 32.7787 155.074 34.3728 155.959 35.7977C156.854 37.2168 158.034 38.4369 159.427 39.3812C160.821 40.3154 162.397 40.9496 164.052 41.2431C166.475 41.7672 169.007 41.4333 171.208 40.2994L172.493 39.5342H172.595C172.672 39.5342 172.595 39.5342 172.595 39.6235V40.7585C172.589 40.7879 172.589 40.8183 172.595 40.8477C172.59 40.8687 172.59 40.8906 172.595 40.9115H172.672H178.364C178.385 40.9169 178.407 40.9169 178.428 40.9115C178.436 40.891 178.436 40.8683 178.428 40.8477C178.433 40.8182 178.433 40.788 178.428 40.7585V18.3776C178.432 18.348 178.432 18.318 178.428 18.2884C178.407 18.283 178.385 18.283 178.364 18.2884L178.376 18.1736ZM170.514 34.752C166.891 38.1697 161.675 36.142 160.455 31.5893C159.427 27.7635 161.74 23.1599 165.902 22.7645C172.082 22.2162 174.779 30.7477 170.514 34.752Z" fill="#212123"/>
  <path d="M104.686 18.2237H98.9434H98.8663H98.7892C98.7838 18.2446 98.7838 18.2666 98.7892 18.2875C98.7892 18.2875 98.7892 18.3513 98.7892 18.3768V27.0613H89.7964V18.4533C89.8151 18.404 89.8151 18.3496 89.7964 18.3002C89.7753 18.2768 89.7496 18.258 89.7209 18.2448C89.6921 18.2316 89.661 18.2245 89.6294 18.2237H83.8739C83.8442 18.2246 83.815 18.232 83.7884 18.2452C83.7618 18.2584 83.7384 18.2772 83.7198 18.3002C83.6951 18.3173 83.675 18.3403 83.6616 18.367C83.6481 18.3937 83.6416 18.4234 83.6427 18.4533V40.7959C83.6416 40.8257 83.6481 40.8554 83.6616 40.8822C83.675 40.9089 83.6951 40.9318 83.7198 40.9489C83.7384 40.972 83.7618 40.9908 83.7884 41.004C83.815 41.0172 83.8442 41.0245 83.8739 41.0254H89.5394C89.5711 41.0247 89.6022 41.0175 89.6309 41.0044C89.6597 40.9912 89.6854 40.9723 89.7064 40.9489C89.7252 40.8996 89.7252 40.8452 89.7064 40.7959V33.2081H98.6993V40.8596C98.6814 40.9047 98.6814 40.9548 98.6993 40.9999C98.7191 41.0207 98.743 41.0371 98.7696 41.048C98.7961 41.059 98.8247 41.0644 98.8535 41.0637H104.596C104.65 41.0821 104.709 41.0821 104.763 41.0637C104.8 41.0207 104.823 40.9671 104.827 40.9106V18.4533C104.827 18.3958 104.804 18.3408 104.763 18.3002C104.743 18.2755 104.718 18.2557 104.689 18.2424C104.66 18.2291 104.628 18.2227 104.596 18.2237" fill="#212123"/>
  <path d="M26.4609 18.1602H5.58468L5.50759 18.224L5.44336 18.2877V18.377V40.7324C5.44336 40.7324 5.44336 40.7324 5.44336 40.8216H5.52044H5.61037H11.4043C11.4629 40.8138 11.5172 40.7871 11.559 40.7456C11.6008 40.7041 11.6277 40.6502 11.6356 40.5921V23.7714C11.6586 23.7033 11.6984 23.6419 11.7512 23.5928H20.3586C20.4244 23.6212 20.4786 23.6706 20.5128 23.7331V40.7579C20.5057 40.7872 20.5057 40.8178 20.5128 40.8471C20.5091 40.8725 20.5091 40.8983 20.5128 40.9237H20.5899H26.4866H26.5637C26.5674 40.8983 26.5674 40.8725 26.5637 40.8471C26.5713 40.8179 26.5713 40.7871 26.5637 40.7579V18.377C26.563 18.3456 26.5558 18.3147 26.5425 18.2862C26.5292 18.2577 26.5102 18.2322 26.4866 18.2112C26.4411 18.1698 26.3814 18.147 26.3196 18.1475L26.4609 18.1602Z" fill="#212123"/>
  <path d="M51.8469 18.1475H32.7564C32.695 18.1492 32.6361 18.1717 32.5894 18.2112C32.5476 18.2564 32.5247 18.3157 32.5252 18.377V33.3741C32.47 33.6661 32.3749 33.9493 32.2425 34.2158C31.8186 35.0064 30.5981 35.1212 29.7502 35.1722C29.6933 35.1768 29.6394 35.1991 29.5961 35.236C29.5761 35.2851 29.5761 35.3399 29.5961 35.389V40.5666C29.5832 40.5994 29.5832 40.6358 29.5961 40.6686C30.5005 40.9509 31.4528 41.0506 32.3967 40.9619C34.0183 40.8909 35.5571 40.2305 36.7202 39.1066C37.8832 37.9826 38.5895 36.4734 38.7045 34.8662C38.8458 31.3719 38.7045 27.8905 38.7045 24.1922C38.7045 23.7459 38.8458 23.5546 39.2955 23.5163H45.629C45.7164 23.5336 45.7982 23.5717 45.8676 23.6272C45.9369 23.6827 45.9917 23.7541 46.0273 23.8351V40.5921C46.0202 40.6214 46.0202 40.652 46.0273 40.6814V40.7579H46.1044H51.8469C51.8778 40.7597 51.9087 40.7551 51.9376 40.7442C51.9665 40.7333 51.9928 40.7165 52.0146 40.6948C52.0365 40.6731 52.0535 40.647 52.0644 40.6183C52.0754 40.5896 52.0801 40.559 52.0782 40.5283V18.377C52.0978 18.3235 52.0978 18.2648 52.0782 18.2112C52.0327 18.1698 51.973 18.147 51.9112 18.1475" fill="#212123"/>
  <path d="M152.477 18.2627H134.08H134.003C133.963 18.292 133.932 18.3317 133.913 18.3775C133.913 18.3775 133.913 18.4412 133.913 18.4667V23.402C133.893 23.4511 133.893 23.506 133.913 23.555C133.957 23.5919 134.011 23.6143 134.068 23.6188H139.964C140.023 23.6259 140.078 23.6529 140.119 23.6953C140.136 23.7448 140.136 23.7988 140.119 23.8483V40.8476C140.106 40.8712 140.1 40.8975 140.1 40.9241C140.1 40.9507 140.106 40.977 140.119 41.0006C140.137 41.0237 140.161 41.0425 140.187 41.0557C140.214 41.0689 140.243 41.0762 140.273 41.0771H145.912C145.942 41.0762 145.971 41.0689 145.998 41.0557C146.025 41.0425 146.048 41.0237 146.067 41.0006C146.09 40.983 146.108 40.9595 146.119 40.9326C146.131 40.9058 146.135 40.8765 146.131 40.8476V23.7336C146.132 23.7022 146.139 23.6713 146.152 23.6427C146.165 23.6142 146.184 23.5887 146.208 23.5678C146.25 23.5282 146.305 23.5055 146.362 23.504H152.246C152.296 23.5189 152.35 23.5189 152.4 23.504C152.42 23.4549 152.42 23.4001 152.4 23.351V18.4922C152.4 18.4922 152.4 18.4285 152.4 18.403C152.404 18.3776 152.404 18.3518 152.4 18.3265H152.323L152.477 18.2627Z" fill="#212123"/>
</svg>
