<svg width="32" height="32" viewBox="0 0 32 32" fill="none" xmlns="http://www.w3.org/2000/svg">
  <rect width="32" height="32" rx="16" fill="#212123"/>
  <g clip-path="url(#clip0_2133_326)">
  <path d="M15.7863 8.21309C11.1507 8.45531 8.09072 12.0909 8.28405 16.6753C8.3685 18.682 9.17516 20.4086 9.36627 22.3131C9.41516 22.8064 9.27294 23.4153 9.84183 23.6309C10.5418 23.8953 11.6152 23.4509 12.2018 23.0442C12.4018 22.9086 12.5929 22.7509 12.7396 22.5553C13.3463 22.9575 13.9218 23.3464 14.6441 23.5198C17.8241 24.282 21.3085 22.5375 22.8574 19.7353C25.7685 14.4709 21.8329 7.89753 15.7863 8.21309ZM13.9863 19.1998C13.7352 19.3953 13.4929 19.662 13.2152 19.8153C12.8129 20.0309 12.6885 19.8064 12.5374 19.4509C12.0618 18.3198 12.0041 16.3931 12.2818 15.2086C12.6552 13.5975 13.9018 12.1798 15.6152 12.0286C17.3485 11.8753 18.9574 12.7553 19.6841 14.3442C21.2929 17.8798 17.1752 21.3709 13.9863 19.202V19.1998Z" fill="white"/>
  </g>
    <defs>
      <clipPath id="clip0_2133_326">
        <rect width="16" height="16" fill="white" transform="translate(8 8)"/>
      </clipPath>
    </defs>
</svg>
