<svg width="32" height="32" viewBox="0 0 32 32" fill="none" xmlns="http://www.w3.org/2000/svg">
<rect width="32" height="32" rx="16" fill="#212123"/>
<path fill-rule="evenodd" clip-rule="evenodd" d="M7.45718 15.904C11.6448 14.0694 14.4371 12.86 15.8343 12.2756C19.8235 10.6071 20.6525 10.3173 21.1927 10.3077C21.3116 10.3056 21.5773 10.3352 21.7494 10.4757C21.8947 10.5942 21.9347 10.7544 21.9538 10.8668C21.9729 10.9793 21.9968 11.2354 21.9778 11.4355C21.7617 13.7195 20.8263 19.2622 20.3504 21.8203C20.149 22.9027 19.7525 23.2657 19.3687 23.3012C18.5345 23.3784 17.9011 22.7468 17.0931 22.2143C15.8289 21.3809 15.1146 20.8621 13.8874 20.049C12.4692 19.1092 13.3886 18.5926 14.1968 17.7485C14.4083 17.5276 18.0838 14.1659 18.1549 13.861C18.1638 13.8228 18.1721 13.6807 18.0881 13.6056C18.0041 13.5305 17.8801 13.5562 17.7906 13.5766C17.6638 13.6055 15.6441 14.9479 11.7316 17.6037C11.1583 17.9995 10.639 18.1924 10.1738 18.1823C9.66088 18.1712 8.67428 17.8907 7.94085 17.651C7.04126 17.3569 6.32629 17.2014 6.38854 16.7021C6.42097 16.442 6.77719 16.1759 7.45718 15.904Z" fill="white"/>
</svg>
